/* XPM */
static char *vais_U[] = {
/* columns rows colors chars-per-pixel */
"16 16 13 1 ",
"  c black",
". c #EAEAEA",
"X c #6994E7",
"o c #E0E769",
"O c #656565",
"+ c #B2B2B2",
"@ c #9C9A9A",
"# c #CBD253",
"$ c #4A75B0",
"% c #E1E1E1",
"& c gray58",
"* c #B8B5B5",
"= c #424141",
/* pixels */
"OOOOOO.XX.OOOOOO",
"OOOOOo....oOOOOO",
"OOOOOX.XX.XOOOOO",
"OOOOOXX..XXOOOOO",
"OOooOXX..XXOooOO",
"OO++OX.XX.XO@@OO",
"OO++Oo....#O@@OO",
"OO++X..XX..$@@OO",
"OO+X..++++..$@OO",
"OO+X..++++..X@OO",
"%%+XX..XX..XX@%%",
"%X+XXX....XXX@$%",
"%X+$$X.XX.X$$@$%",
"%X&OO$oooo$OO&$%",
"**OO$$o==o$$OO**",
"OOOO$OOOOOO$OOOO"
};
