/* XPM */
static char *vais_R[] = {
/* columns rows colors chars-per-pixel */
"16 16 13 1 ",
"  c black",
". c #EAEAEA",
"X c #6994E7",
"o c #E0E769",
"O c #656565",
"+ c #B2B2B2",
"@ c #9C9A9A",
"# c #CBD253",
"$ c #4A75B0",
"% c #E1E1E1",
"& c gray58",
"* c #B8B5B5",
"= c #424141",
/* pixels */
"O*%%%%OOOOOOOOOO",
"O*XXX%OOOOOOOOOO",
"OO&++++++++oOOOO",
"OOO$XXXX+++oOOOO",
"$$O$XX..XOOOOOOO",
"O$$XX....oXXXXoO",
"Ooo...++...XX...",
"O=oX.X++X.X..X.X",
"O=oX.X++X.X..X.X",
"Ooo...++...XX...",
"O$$XX....#XXXXoO",
"$$O$XX..$OOOOOOO",
"OOO$XXX$@@@oOOOO",
"OO&@@@@@@@@oOOOO",
"O*$$$%OOOOOOOOOO",
"O*%%%%OOOOOOOOOO"
};
